<?xml version="1.0" standalone="no"?>
<!DOCTYPE svg PUBLIC "-//W3C//DTD SVG 20010904//EN"
 "http://www.w3.org/TR/2001/REC-SVG-20010904/DTD/svg10.dtd">
<svg version="1.0" xmlns="http://www.w3.org/2000/svg"
 width="40.000000pt" height="38.000000pt" viewBox="0 0 40.000000 38.000000"
 preserveAspectRatio="xMidYMid meet">
<metadata>
Created by potrace 1.10, written by Peter Selinger 2001-2011
</metadata>
<g transform="translate(0.000000,38.000000) scale(0.100000,-0.100000)"
fill="#000000" stroke="none">
<path d="M240 351 c-5 -10 -26 -22 -47 -26 -20 -4 -50 -13 -65 -21 -14 -8 -34
-11 -42 -8 -24 9 -46 -15 -47 -50 0 -59 -11 -151 -19 -161 -14 -17 -23 -85
-12 -85 10 0 18 41 28 140 7 64 22 90 38 68 23 -30 68 -50 133 -58 37 -5 70
-5 73 -2 3 4 19 13 35 21 17 7 27 10 23 6 -4 -4 0 -24 9 -44 9 -20 24 -58 34
-86 15 -41 18 -45 19 -22 0 15 -10 49 -23 75 -25 52 -27 76 -9 109 20 37 14
67 -21 101 -25 24 -38 30 -57 25 -32 -9 -59 -33 -36 -33 9 0 16 -6 16 -13 0
-7 16 -21 35 -31 29 -16 38 -17 48 -6 9 10 9 13 0 17 -7 3 -13 10 -13 16 0 6
7 4 16 -5 43 -43 -42 -118 -135 -118 -53 0 -135 36 -127 56 3 8 -4 14 -17 16
-12 2 -22 9 -22 16 0 6 4 11 10 10 5 -2 9 -6 8 -10 -6 -17 17 -7 27 12 6 11
20 20 30 20 11 0 20 4 20 8 0 4 16 6 35 4 19 -2 35 -8 35 -13 0 -5 5 -9 11 -9
25 0 -14 30 -40 31 -19 0 -11 5 29 19 30 11 56 20 58 20 1 0 2 4 2 9 0 18 -30
20 -40 2z"/>
</g>
</svg>
